<?xml version="1.0" encoding="UTF-8" standalone="no"?>
<!DOCTYPE svg PUBLIC "-//W3C//DTD SVG 1.1//EN" "http://www.w3.org/Graphics/SVG/1.1/DTD/svg11.dtd"[]>
<!-- Generated by graphviz version 9.0.0 (20230911.1827)
 -->
<!-- Title: Fetchallpowerautomateruns&#45;DEC7F7F0&#45;49DB&#45;EF11&#45;8EEA&#45;6045BD08D9EE Pages: 1 -->
<svg width="393pt" height="188pt" viewBox="0.00 0.00 392.75 188.00" xmlns="http://www.w3.org/2000/svg" xmlns:xlink="http://www.w3.org/1999/xlink">
  <g id="graph0" class="graph" transform="scale(1 1) rotate(0) translate(4 184)">
    <title>Fetchallpowerautomateruns-DEC7F7F0-49DB-EF11-8EEA-6045BD08D9EE</title>
    <polygon fill="white" stroke="none" points="-4,4 -4,-184 388.75,-184 388.75,4 -4,4" />
    <!-- manual -->
    <g id="node1" class="node">
      <title>manual</title>
      <ellipse fill="#d9ebff" stroke="#0077ff" cx="192.38" cy="-162" rx="41.63" ry="18" />
      <text text-anchor="middle" x="192.38" y="-156.95" font-family="Helvetica,sans-Serif" font-size="14.00">manual</text>
    </g>
    <!-- Retrieve_Flow_runs -->
    <g id="node2" class="node">
      <title>Retrieve_Flow_runs</title>
      <polygon fill="#daece3" stroke="#088142" points="255.75,-108 129,-108 129,-72 255.75,-72 255.75,-108" />
      <text text-anchor="middle" x="192.38" y="-84.95" font-family="Helvetica,sans-Serif" font-size="14.00">Retrieve_Flow_runs</text>
    </g>
    <!-- manual&#45;&gt;Retrieve_Flow_runs -->
    <g id="edge1" class="edge">
      <title>manual-&gt;Retrieve_Flow_runs</title>
      <path fill="none" stroke="black" d="M192.38,-143.7C192.38,-136.41 192.38,-127.73 192.38,-119.54" />
      <polygon fill="black" stroke="black" points="195.88,-119.62 192.38,-109.62 188.88,-119.62 195.88,-119.62" />
    </g>
    <!-- Filter_array_&#45;_Get_all_results_except_the_succeeded_ones -->
    <g id="node3" class="node">
      <title>Filter_array_-_Get_all_results_except_the_succeeded_ones</title>
      <polygon fill="white" stroke="blue" points="384.75,-36 0,-36 0,0 384.75,0 384.75,-36" />
      <text text-anchor="middle" x="192.38" y="-12.95" font-family="Helvetica,sans-Serif" font-size="14.00">Filter_array_-_Get_all_results_except_the_succeeded_ones</text>
    </g>
    <!-- Retrieve_Flow_runs&#45;&gt;Filter_array_&#45;_Get_all_results_except_the_succeeded_ones -->
    <g id="edge2" class="edge">
      <title>Retrieve_Flow_runs-&gt;Filter_array_-_Get_all_results_except_the_succeeded_ones</title>
      <path fill="none" stroke="black" d="M192.38,-71.7C192.38,-64.41 192.38,-55.73 192.38,-47.54" />
      <polygon fill="black" stroke="black" points="195.88,-47.62 192.38,-37.62 188.88,-47.62 195.88,-47.62" />
    </g>
  </g>
</svg>